<svg width="465" height="644" viewBox="0 0 465 644" fill="none" xmlns="http://www.w3.org/2000/svg">
<path d="M275.088 73.5187C234.61 67.8968 216.62 69.0212 182.888 73.5187C157.866 76.8549 151 97.0099 133.415 115.121C57.0963 193.725 27.438 273.578 45.7124 381.602C64.438 492.292 106.43 581.743 223.366 607.604C243.95 612.157 246.351 636.086 267.217 639.087C299.468 643.726 302.966 599.706 333.556 588.49C434.752 551.385 464.516 454.062 460.613 347.87C456.653 240.141 413.388 172.465 312.193 115.121C293.752 104.672 296.082 76.4345 275.088 73.5187Z" fill="#FFDF00"/>
<path fill-rule="evenodd" clip-rule="evenodd" d="M353.5 140L332.5 125.5C332.5 125.5 428.883 292.117 374.422 410.403C324.781 518.219 152.5 579.5 152.5 579.5L166 589L189.5 597.5L210 605L230.5 608.295L242.868 622.913L258.5 636.5L282 639L296 626L315 603L327.198 592.554L340 585.5L358 578L375 567.5L398 549L419.398 525.09L433 502.5L448.632 456.503L459.5 410.403L458.5 312L448.632 269.854L437 237L419.398 206.888L395 176L353.5 140Z" fill="#E1C409"/>
<path d="M281 637.5L297.964 624.037C297.964 624.037 284.903 619.452 279.973 612.793C275.344 606.539 272.5 591.5 272.5 591.5L248.5 601L224.878 607.171L239.5 617L254.5 633L267.605 640.903L281 637.5Z" fill="#C9AE08"/>
<path d="M430.297 455.342C398.564 521.39 348.213 535.314 311.016 545.23C313.716 516.245 348.902 497.53 380.636 431.482C412.37 365.434 396.467 310.258 423.277 288.211C448.931 320.496 462.031 389.294 430.297 455.342Z" fill="#D0B50C"/>
<path fill-rule="evenodd" clip-rule="evenodd" d="M274.538 77.4807C234.483 71.9176 216.863 73.0242 183.417 77.4836C172.125 78.9891 164.952 84.2024 158.317 91.4751C155.368 94.7081 152.586 98.2789 149.569 102.152C149.117 102.732 148.66 103.319 148.197 103.912C144.677 108.416 140.84 113.216 136.285 117.908C98.4157 156.91 72.3092 196.031 57.8797 238.613C43.4576 281.173 40.6096 327.458 49.6563 380.935C58.978 436.037 74.0269 485.4 100.993 524.129C127.864 562.721 166.725 590.981 224.23 603.699C235.646 606.223 242.153 614.037 247.672 620.662C247.868 620.898 248.063 621.132 248.257 621.364C254.096 628.36 259.034 633.869 267.787 635.128C274.812 636.138 280.076 634.525 284.63 631.413C289.364 628.178 293.44 623.254 297.791 617.359C298.754 616.053 299.73 614.698 300.728 613.312C308.409 602.641 317.397 590.154 332.179 584.734C430.887 548.542 460.497 453.618 456.615 348.017C454.654 294.674 442.981 251.563 419.494 214.753C395.992 177.917 360.453 147.066 310.221 118.601C300.736 113.226 296.097 103.695 292.262 95.8157C291.839 94.947 291.426 94.0984 291.017 93.2776C286.646 84.4987 282.789 78.6266 274.538 77.4807ZM182.359 69.5538C216.377 65.0182 234.737 63.876 275.639 69.5567C288.382 71.3266 293.856 81.0309 298.179 89.7118C298.589 90.5355 298.99 91.3516 299.387 92.1582C303.419 100.355 306.964 107.56 314.165 111.641C365.128 140.52 401.82 172.179 426.238 210.45C450.672 248.745 462.611 293.336 464.61 347.723C468.535 454.506 438.617 554.228 334.933 592.245C322.614 596.762 315.133 607.086 307.264 617.945C306.262 619.328 305.253 620.72 304.228 622.11C299.849 628.041 295.092 633.953 289.143 638.018C283.015 642.206 275.748 644.355 266.648 643.047C254.534 641.304 247.839 633.348 242.115 626.491L242.025 626.383C236.149 619.343 231.22 613.438 222.502 611.51C163.07 598.366 122.468 568.971 94.4275 528.7C66.482 488.565 51.1723 437.857 41.7684 382.269C32.5407 327.722 35.3847 280.069 50.3029 236.045C65.2135 192.044 92.0954 151.935 130.545 112.335C134.782 107.971 138.398 103.459 141.893 98.9863C142.343 98.4105 142.792 97.8337 143.241 97.2571C146.239 93.407 149.231 89.5649 152.407 86.0835C159.858 77.9168 168.629 71.3845 182.359 69.5538Z" fill="black"/>
<path d="M209.414 602.327C209.21 601.74 223.975 606.759 246.858 598.827C269.74 590.895 276.401 587.929 276.604 588.516C276.808 589.103 271.226 595.18 248.343 603.112C225.461 611.045 209.617 602.914 209.414 602.327Z" fill="black"/>
<path d="M317.108 118.782C317.195 119.397 303.661 111.65 279.685 115.066C255.708 118.481 248.604 120.12 248.516 119.506C248.429 118.891 255.069 113.991 279.045 110.576C303.021 107.16 317.02 118.168 317.108 118.782Z" fill="black"/>
<path d="M94.1081 279.197C97.5268 361.332 82.408 428.66 75.5831 428.944C68.7582 429.228 55.1416 373.352 51.7228 291.217C48.304 209.082 102.192 150.998 109.017 150.714C115.842 150.43 90.6893 197.062 94.1081 279.197Z" fill="#F3D503"/>
<path d="M233.686 301.273C225.883 369.759 217.842 425.082 200.567 423.114C183.291 421.146 167.791 363.141 175.593 294.655C183.395 226.168 211.545 173.136 228.821 175.104C246.097 177.072 241.488 232.786 233.686 301.273Z" fill="#FCEB5F"/>
<ellipse cx="236.122" cy="94.4489" rx="20.239" ry="8.99513" fill="#FFF483"/>
<path d="M59.5928 107.942C104.019 71.3614 189.271 77.4536 189.271 77.4536C189.271 77.4536 199.305 168.84 172.954 217.33C139.92 278.116 39.3535 313.705 39.3535 313.705C39.3535 313.705 -5.21918 161.307 59.5928 107.942Z" fill="black" fill-opacity="0.3"/>
<path d="M56.2198 95.5733C100.646 58.9931 187.022 59.4634 187.022 59.4634C187.022 59.4634 197.056 150.85 170.705 199.34C137.671 260.126 22.6827 299.088 22.6827 299.088C22.6827 299.088 -8.59215 148.939 56.2198 95.5733Z" fill="#78BB43"/>
<path d="M183.078 57.8525C183.215 56.7874 183.281 56.2196 183.281 56.2196C183.281 56.2196 98.923 84.8364 63.8552 127.056C21.0781 178.558 25.4262 299.088 25.4262 299.088C25.4262 299.088 35.2902 295.715 29.2338 295.715L104.568 156.29L183.078 57.8525Z" fill="#6DA44B"/>
<path d="M29.2341 295.715C45.337 283.882 121.082 224.739 150.278 176.021C173.423 137.401 183.155 67.7371 184.636 56.2196L98.9463 161.912L29.2341 295.715Z" fill="#7CB855"/>
<path fill-rule="evenodd" clip-rule="evenodd" d="M187.096 55.4641C187.098 55.4641 187.099 55.4641 187.022 59.4634C190.998 59.0268 190.998 59.0279 190.999 59.0292L191.007 59.104C191.012 59.1518 191.019 59.2214 191.029 59.3123C191.048 59.4941 191.075 59.7613 191.109 60.1097C191.178 60.8065 191.274 61.8283 191.387 63.1424C191.613 65.7703 191.905 69.5683 192.172 74.2737C192.706 83.6802 193.14 96.7343 192.744 111.327C191.956 140.319 187.879 176.116 174.219 201.25C157.087 232.776 119.107 258.177 86.172 275.547C69.5884 284.293 54.0577 291.117 42.675 295.755C36.9811 298.075 32.3185 299.85 29.0729 301.048C27.45 301.647 26.1809 302.101 25.3139 302.407C24.8803 302.56 24.5473 302.676 24.3207 302.755C24.2074 302.794 24.1207 302.824 24.0614 302.844L23.9691 302.876C23.9675 302.876 23.9664 302.876 22.6827 299.088C18.7491 299.814 18.7488 299.812 18.7484 299.81L18.7426 299.779L18.7264 299.689C18.7123 299.611 18.6919 299.497 18.6655 299.348C18.6129 299.05 18.5367 298.611 18.4406 298.04C18.2484 296.897 17.9766 295.222 17.6547 293.077C17.011 288.788 16.1667 282.614 15.3583 275.042C13.7427 259.909 12.2659 239.149 12.8346 216.679C13.4028 194.231 16.0154 169.935 22.6515 147.789C29.2824 125.661 40.0209 105.383 57.0503 91.3609C80.1077 72.3756 112.84 63.493 139.34 59.288C152.666 57.1735 164.578 56.2181 173.16 55.7908C177.453 55.577 180.92 55.495 183.322 55.4666C184.523 55.4524 185.458 55.4516 186.097 55.4545C186.417 55.4559 186.663 55.4582 186.831 55.4602C186.915 55.4613 186.98 55.4622 187.025 55.4629L187.077 55.4637L187.096 55.4641ZM22.6827 299.088L18.7491 299.814L19.5876 304.36L23.9664 302.876L22.6827 299.088ZM25.8446 293.711C25.9941 293.656 26.147 293.6 26.3033 293.542C29.4752 292.372 34.0542 290.629 39.6565 288.346C50.8664 283.779 66.1473 277.063 82.44 268.471C115.257 251.163 151.289 226.69 167.19 197.43C179.883 174.075 183.964 139.933 184.747 111.109C185.136 96.7939 184.709 83.9706 184.185 74.7268C183.923 70.107 183.637 66.3867 183.417 63.8274C183.406 63.7044 183.396 63.584 183.385 63.4664C181.075 63.4941 177.721 63.5735 173.558 63.7809C165.189 64.1976 153.572 65.1298 140.594 67.1892C114.486 71.3319 83.5041 79.942 62.1355 97.5368C46.759 110.198 36.6807 128.842 30.3148 150.086C23.9541 171.313 21.3899 194.841 20.8321 216.882C20.2747 238.901 21.7226 259.295 23.3131 274.193C24.1079 281.638 24.9371 287.698 25.5661 291.89C25.6641 292.543 25.7572 293.151 25.8446 293.711ZM187.022 59.4634L190.998 59.0268L190.615 55.5317L187.099 55.4641L187.022 59.4634Z" fill="black"/>
<path d="M233.873 23.6122C233.873 23.6122 229.375 60.7171 222.629 69.7122C218.131 65.2147 212.51 53.9708 209.137 33.7317C211.385 14.6171 209.137 7.87074 215.883 0C221.505 8.99513 233.873 23.6122 233.873 23.6122Z" fill="black"/>
<path d="M134.678 229.26C97.821 266.173 62.2646 278.853 57.4308 274.026C52.597 269.2 83.7505 249.941 120.607 213.029C157.464 176.116 167.893 144.873 172.727 149.699C177.56 154.526 171.534 192.348 134.678 229.26Z" fill="#92C673"/>
<path d="M221.234 36.6481C220.109 40.0213 233.873 28.1098 162.765 86.1211C96.9252 152.887 41.975 279.012 40.2064 277.268C38.4378 275.524 92.4277 143.892 158.268 77.126C224.107 10.3603 218.985 38.8969 221.234 36.6481Z" fill="black"/>
<path d="M152.136 90.9084C150.707 98.8358 145.346 94.5286 118.862 95.4833C92.3788 96.438 81.4166 103.257 81.3719 102.016C81.3271 100.775 98.1949 91.2834 124.678 90.3287C151.162 89.374 158.784 85.0432 152.136 90.9084Z" fill="black"/>
<path d="M120.06 135.699C118.244 142.712 112.732 138.704 84.6581 138.704C56.5838 138.704 49.4731 142.399 49.4731 141.293C49.4731 140.186 63.0013 133.422 91.0756 133.422C119.15 133.422 127.321 130.69 120.06 135.699Z" fill="black"/>
<path d="M97.8515 162.065C96.6582 167.76 91.7937 164.847 68.0179 166.308C44.2422 167.769 38.625 169.888 38.5707 169.005C38.5164 168.121 49.6507 163.527 73.4265 162.065C97.2022 160.604 103.756 157.688 97.8515 162.065Z" fill="black"/>
<path d="M76.2408 199.011C75.8924 203.333 72.3707 201.475 56.421 204.099C40.4714 206.722 34.9636 210.916 34.8558 210.261C34.748 209.606 43.4959 202.57 59.4456 199.946C75.3952 197.323 79.8786 195.367 76.2408 199.011Z" fill="black"/>
<path d="M128.996 117.913C122.875 121.708 128.262 125.139 136.362 149.144C144.461 173.149 143.862 183.31 144.911 182.956C145.959 182.602 147.661 166.125 139.562 142.12C131.463 118.115 131.648 110.103 128.996 117.913Z" fill="black"/>
<path d="M107.366 152.994C102.275 155.66 106.356 158.472 111.38 177.059C116.405 195.645 113.978 203.089 114.833 202.858C115.688 202.627 119.484 190.154 114.46 171.568C109.435 152.982 109.935 147.14 107.366 152.994Z" fill="black"/>
<path d="M84.7826 188.399C80.7992 190.11 83.685 192.853 86.2981 208.805C88.9112 224.756 85.6428 233.981 86.298 233.873C86.9532 233.766 91.879 220.563 89.2659 204.611C86.6528 188.66 87.0727 183.787 84.7826 188.399Z" fill="black"/>
<circle cx="358.681" cy="547.578" r="5.62195" fill="#BDA105"/>
<circle cx="381.168" cy="277.724" r="5.62195" fill="#BDA105"/>
<circle cx="130.268" cy="397.872" r="5.62195" transform="rotate(10.9013 130.268 397.872)" fill="#BDA105"/>
<circle cx="134.765" cy="478.828" r="5.62195" transform="rotate(10.9013 134.765 478.828)" fill="#BDA105"/>
<circle cx="241.744" cy="151.793" r="5.62195" fill="#BDA105"/>
<circle cx="208.013" cy="480.115" r="3.37317" fill="#BDA105"/>
<circle cx="383.417" cy="450.881" r="3.37317" fill="#BDA105"/>
<circle cx="279.973" cy="394.661" r="3.37317" fill="#BDA105"/>
<circle cx="178.779" cy="376.671" r="3.37317" fill="#BDA105"/>
<circle cx="199.017" cy="381.168" r="1.12439" fill="#BDA105"/>
<circle cx="275.476" cy="358.681" r="1.12439" fill="#BDA105"/>
<circle cx="288.969" cy="264.232" r="1.12439" fill="#BDA105"/>
<circle cx="214.759" cy="158.539" r="1.12439" fill="#BDA105"/>
<circle cx="340.691" cy="401.408" r="1.12439" fill="#BDA105"/>
<circle cx="174.281" cy="540.832" r="1.12439" fill="#BDA105"/>
<circle cx="104.569" cy="396.91" r="1.12439" fill="#BDA105"/>
<circle cx="306.959" cy="226.003" r="1.12439" fill="#BDA105"/>
<circle cx="259.735" cy="333.944" r="1.12439" fill="#BDA105"/>
<circle cx="199.017" cy="527.339" r="1.12439" fill="#BDA105"/>
<circle cx="313.705" cy="453.129" r="1.12439" fill="#BDA105"/>
<circle cx="376.671" cy="399.159" r="1.12439" fill="#BDA105"/>
<circle cx="410.403" cy="338.442" r="1.12439" fill="#BDA105"/>
<circle cx="363.179" cy="214.759" r="3.37317" fill="#BDA105"/>
<circle cx="367.676" cy="338.442" r="3.37317" fill="#BDA105"/>
<circle cx="324.949" cy="241.744" r="3.37317" fill="#BDA105"/>
<circle cx="315.954" cy="178.778" r="3.37317" fill="#BDA105"/>
<circle cx="219.256" cy="246.242" r="3.37317" fill="#BDA105"/>
<circle cx="154.042" cy="268.729" r="3.37317" fill="#BDA105"/>
<circle cx="133.803" cy="336.193" r="3.37317" fill="#BDA105"/>
</svg>
